<?xml version="1.0" encoding="utf-8"?>
<!-- Generator: Adobe Illustrator 15.0.0, SVG Export Plug-In . SVG Version: 6.00 Build 0)  -->
<!DOCTYPE svg PUBLIC "-//W3C//DTD SVG 1.1//EN" "http://www.w3.org/Graphics/SVG/1.1/DTD/svg11.dtd">
<svg version="1.1" id="Layer_1" xmlns="http://www.w3.org/2000/svg" xmlns:xlink="http://www.w3.org/1999/xlink" x="0px" y="0px"
	 width="200px" height="200px" viewBox="0 0 200 200" enable-background="new 0 0 200 200" xml:space="preserve">
<circle fill="#D0E7EA" cx="100.445" cy="100.497" r="99.625"/>
<linearGradient id="SVGID_1_" gradientUnits="userSpaceOnUse" x1="95.7705" y1="126.3262" x2="88.6299" y2="126.3262">
	<stop  offset="0" style="stop-color:#00A79D"/>
	<stop  offset="1" style="stop-color:#0082C6"/>
</linearGradient>
<rect x="88.63" y="89.604" fill="url(#SVGID_1_)" width="7.141" height="73.444"/>
<linearGradient id="SVGID_2_" gradientUnits="userSpaceOnUse" x1="115.4063" y1="126.3262" x2="99.9912" y2="126.3262">
	<stop  offset="0.239" style="stop-color:#004F77"/>
	<stop  offset="1" style="stop-color:#28B34B"/>
</linearGradient>
<rect x="103.931" y="89.604" fill="url(#SVGID_2_)" width="7.141" height="73.444"/>
<linearGradient id="SVGID_3_" gradientUnits="userSpaceOnUse" x1="147.3828" y1="134.4785" x2="113.3804" y2="134.4785">
	<stop  offset="0.1225" style="stop-color:#7F3F98"/>
	<stop  offset="1" style="stop-color:#1C75BC"/>
</linearGradient>
<path fill="url(#SVGID_3_)" d="M136.559,179.354c-8.991,0-16.307-7.315-16.307-16.307V89.604h7.14v73.444
	c0,5.054,4.112,9.166,9.167,9.166c5.054,0,9.166-4.112,9.166-9.166h7.141C152.865,172.039,145.55,179.354,136.559,179.354z"/>
<linearGradient id="SVGID_4_" gradientUnits="userSpaceOnUse" x1="58.6836" y1="134.4795" x2="89.6574" y2="134.4795">
	<stop  offset="0" style="stop-color:#97BFD2"/>
	<stop  offset="0.1257" style="stop-color:#92BCCF"/>
	<stop  offset="0.2542" style="stop-color:#83B3CA"/>
	<stop  offset="0.3839" style="stop-color:#69A4C0"/>
	<stop  offset="0.5144" style="stop-color:#4691B2"/>
	<stop  offset="0.6457" style="stop-color:#007AA0"/>
	<stop  offset="0.7758" style="stop-color:#00628C"/>
	<stop  offset="0.7851" style="stop-color:#00618A"/>
</linearGradient>
<path fill="url(#SVGID_4_)" d="M63.143,179.354c-8.991,0-16.307-7.315-16.307-16.307h7.141c0,5.054,4.112,9.166,9.166,9.166
	c5.055,0,9.167-4.112,9.167-9.166V89.604h7.141v73.444C79.45,172.039,72.134,179.354,63.143,179.354z"/>
<g id="XMLID_2_">
	<path fill="#0D96AF" d="M161.39,77.367c0,0.031,0,0.052,0,0.082H39.493c0-0.03,0-0.051,0-0.082
		c0.041-33.62,27.327-60.866,60.948-60.866C134.072,16.501,161.349,43.747,161.39,77.367z"/>
	<path fill="#0D96AF" d="M39.493,77.449H161.39c-0.041,6.712-5.509,12.158-12.24,12.158H51.734
		C45.011,89.607,39.534,84.161,39.493,77.449z"/>
</g>
<ellipse transform="matrix(0.824 0.5666 -0.5666 0.824 38.9268 -31.3572)" fill="#D9F1FD" cx="69.934" cy="46.975" rx="3.641" ry="16.065"/>
</svg>
